# xmcd
#
# Track frame offsets: 
#        150
#        17865
#        45555
#        64575
#        82807
#        96295
#        114775
#        132127
#        144562
#        164877
#        186557
#        210272
#        231725
#        262575
#        279302
#        290725
#        308332
#
# Disc length: 4300 seconds
#
# Revision: 0
# Processed by: cddbd v1.5.1PL0 Copyright (c) Steve Scherf et al.
# Submitted via: ExactAudioCopy v0.95a3
#
DISCID=ec10ca11
DTITLE=Михаил Муромов - Странная Женщина
DYEAR=1994
DGENRE=Pop
TTITLE0=Ведьма
TTITLE1=Ариадна
TTITLE2=Яблоки На Снегу
TTITLE3=Стюардесса
TTITLE4=Подкова
TTITLE5=Сладкий Яд
TTITLE6=Флюгер
TTITLE7=Птица Синее Крыло
TTITLE8=Ирэн
TTITLE9=Снова С Тобой
TTITLE10=Тёплые Ливни
TTITLE11=Метелица
TTITLE12=Странная Женщина
TTITLE13=Боевым Награждается Орденом
TTITLE14=Ожидание
TTITLE15=My Way
TTITLE16=Сто Свадеб
EXTD=
EXTT0=
EXTT1=
EXTT2=
EXTT3=
EXTT4=
EXTT5=
EXTT6=
EXTT7=
EXTT8=
EXTT9=
EXTT10=
EXTT11=
EXTT12=
EXTT13=
EXTT14=
EXTT15=
EXTT16=
PLAYORDER=
